<svg xmlns="http://www.w3.org/2000/svg" xmlns:xlink="http://www.w3.org/1999/xlink" width="500" zoomAndPan="magnify" viewBox="0 0 375 374.999991" height="500" preserveAspectRatio="xMidYMid meet" version="1.0"><path fill="#000000" d="M 145.609375 230.066406 L 230.066406 230.066406 L 230.066406 145.609375 L 145.609375 145.609375 Z M 187.835938 162.5 C 201.824219 162.5 213.175781 173.851562 213.175781 187.835938 C 213.175781 201.824219 201.824219 213.175781 187.835938 213.175781 C 173.851562 213.175781 162.5 201.824219 162.5 187.835938 C 162.5 173.851562 173.851562 162.5 187.835938 162.5 Z M 172.636719 187.835938 C 172.636719 179.460938 179.460938 172.636719 187.835938 172.636719 C 196.214844 172.636719 203.039062 179.460938 203.039062 187.835938 C 203.039062 196.214844 196.214844 203.039062 187.835938 203.039062 C 179.460938 203.039062 172.636719 196.214844 172.636719 187.835938 Z M 235.136719 108.445312 L 140.539062 108.445312 C 122.835938 108.445312 108.445312 122.835938 108.445312 140.539062 L 108.445312 235.136719 C 108.445312 252.835938 122.835938 267.230469 140.539062 267.230469 L 235.136719 267.230469 C 252.835938 267.230469 267.230469 252.835938 267.230469 235.136719 L 267.230469 140.539062 C 267.230469 122.835938 252.835938 108.445312 235.136719 108.445312 Z M 240.203125 235.136719 C 240.203125 237.90625 237.90625 240.203125 235.136719 240.203125 L 140.539062 240.203125 C 137.769531 240.203125 135.472656 237.90625 135.472656 235.136719 L 135.472656 140.539062 C 135.472656 137.769531 137.769531 135.472656 140.539062 135.472656 L 235.136719 135.472656 C 237.90625 135.472656 240.203125 137.769531 240.203125 140.539062 Z M 259.460938 40.203125 C 258.175781 40.203125 256.890625 39.730469 255.878906 38.714844 C 237.636719 20.472656 213.511719 10.472656 187.835938 10.472656 C 162.164062 10.472656 138.039062 20.472656 119.796875 38.714844 C 117.835938 40.675781 114.59375 40.675781 112.636719 38.714844 C 110.675781 36.757812 110.675781 33.511719 112.636719 31.554688 C 132.769531 11.417969 159.460938 0.335938 187.835938 0.335938 C 216.214844 0.335938 242.90625 11.417969 263.039062 31.554688 C 265 33.511719 265 36.757812 263.039062 38.714844 C 262.027344 39.730469 260.742188 40.203125 259.460938 40.203125 Z M 240.40625 59.257812 C 239.121094 59.257812 237.835938 58.785156 236.824219 57.769531 C 223.648438 44.664062 206.285156 37.5 187.835938 37.5 C 169.390625 37.5 151.960938 44.730469 138.851562 57.769531 C 136.890625 59.730469 133.648438 59.730469 131.6875 57.769531 C 129.730469 55.8125 129.730469 52.566406 131.6875 50.609375 C 146.757812 35.609375 166.6875 27.363281 187.835938 27.363281 C 208.988281 27.363281 228.917969 35.609375 243.988281 50.609375 C 245.945312 52.566406 245.945312 55.8125 243.988281 57.769531 C 242.972656 58.785156 241.6875 59.257812 240.40625 59.257812 Z M 154.390625 78.378906 C 153.109375 78.378906 151.824219 77.90625 150.8125 76.890625 C 148.851562 74.933594 148.851562 71.6875 150.8125 69.730469 C 160.675781 59.863281 173.851562 54.390625 187.835938 54.390625 C 201.824219 54.390625 215 59.863281 224.863281 69.730469 C 226.824219 71.6875 226.824219 74.933594 224.863281 76.890625 C 222.90625 78.851562 219.664062 78.851562 217.703125 76.890625 C 209.730469 68.917969 199.121094 64.527344 187.835938 64.527344 C 176.554688 64.527344 165.945312 68.917969 157.972656 76.890625 C 156.960938 77.90625 155.675781 78.378906 154.390625 78.378906 Z M 187.835938 375.335938 C 159.460938 375.335938 132.769531 364.257812 112.636719 344.121094 C 110.675781 342.164062 110.675781 338.917969 112.636719 336.960938 C 114.59375 335 117.835938 335 119.796875 336.960938 C 138.039062 355.203125 162.164062 365.203125 187.835938 365.203125 C 213.511719 365.203125 237.636719 355.203125 255.878906 336.960938 C 257.835938 335 261.082031 335 263.039062 336.960938 C 265 338.917969 265 342.164062 263.039062 344.121094 C 242.90625 364.257812 216.214844 375.335938 187.835938 375.335938 Z M 187.835938 348.3125 C 166.6875 348.3125 146.757812 340.066406 131.6875 325.066406 C 129.730469 323.109375 129.730469 319.863281 131.6875 317.90625 C 133.648438 315.945312 136.890625 315.945312 138.851562 317.90625 C 152.027344 331.011719 169.390625 338.175781 187.835938 338.175781 C 206.285156 338.175781 223.714844 330.945312 236.824219 317.90625 C 238.785156 315.945312 242.027344 315.945312 243.988281 317.90625 C 245.945312 319.863281 245.945312 323.109375 243.988281 325.066406 C 228.917969 340.066406 208.988281 348.3125 187.835938 348.3125 Z M 187.835938 321.285156 C 173.851562 321.285156 160.675781 315.8125 150.8125 305.945312 C 148.851562 303.988281 148.851562 300.742188 150.8125 298.785156 C 152.769531 296.824219 156.011719 296.824219 157.972656 298.785156 C 165.945312 306.757812 176.554688 311.148438 187.835938 311.148438 C 199.121094 311.148438 209.730469 306.757812 217.703125 298.785156 C 219.664062 296.824219 222.90625 296.824219 224.863281 298.785156 C 226.824219 300.742188 226.824219 303.988281 224.863281 305.945312 C 215 315.8125 201.824219 321.285156 187.835938 321.285156 Z M 340.539062 264.527344 C 339.257812 264.527344 337.972656 264.054688 336.960938 263.039062 C 335 261.082031 335 257.835938 336.960938 255.878906 C 355.203125 237.636719 365.203125 213.511719 365.203125 187.835938 C 365.203125 162.164062 355.203125 138.039062 336.960938 119.796875 C 335 117.835938 335 114.59375 336.960938 112.636719 C 338.917969 110.675781 342.164062 110.675781 344.121094 112.636719 C 364.257812 132.769531 375.335938 159.460938 375.335938 187.835938 C 375.335938 216.214844 364.257812 242.90625 344.121094 263.039062 C 343.109375 264.054688 341.824219 264.527344 340.539062 264.527344 Z M 321.488281 245.472656 C 320.203125 245.472656 318.917969 245 317.90625 243.988281 C 315.945312 242.027344 315.945312 238.785156 317.90625 236.824219 C 331.011719 223.648438 338.175781 206.285156 338.175781 187.835938 C 338.175781 169.390625 330.945312 152.027344 317.90625 138.851562 C 315.945312 136.890625 315.945312 133.648438 317.90625 131.6875 C 319.863281 129.730469 323.109375 129.730469 325.066406 131.6875 C 340.066406 146.757812 348.3125 166.6875 348.3125 187.835938 C 348.3125 208.988281 340.066406 228.917969 325.066406 243.988281 C 324.054688 245 322.769531 245.472656 321.488281 245.472656 Z M 302.363281 226.351562 C 301.082031 226.351562 299.796875 225.878906 298.785156 224.863281 C 296.824219 222.90625 296.824219 219.664062 298.785156 217.703125 C 306.757812 209.730469 311.148438 199.121094 311.148438 187.835938 C 311.148438 176.554688 306.757812 165.945312 298.785156 157.972656 C 296.824219 156.011719 296.824219 152.769531 298.785156 150.8125 C 300.742188 148.851562 303.988281 148.851562 305.945312 150.8125 C 315.8125 160.675781 321.285156 173.851562 321.285156 187.835938 C 321.285156 201.824219 315.8125 215 305.945312 224.863281 C 304.933594 225.878906 303.648438 226.351562 302.363281 226.351562 Z M 35.136719 264.527344 C 33.851562 264.527344 32.566406 264.054688 31.554688 263.039062 C 11.417969 242.90625 0.335938 216.214844 0.335938 187.835938 C 0.335938 159.460938 11.417969 132.769531 31.554688 112.636719 C 33.511719 110.675781 36.757812 110.675781 38.714844 112.636719 C 40.675781 114.59375 40.675781 117.835938 38.714844 119.796875 C 20.472656 138.039062 10.472656 162.164062 10.472656 187.835938 C 10.472656 213.511719 20.472656 237.636719 38.714844 255.878906 C 40.675781 257.835938 40.675781 261.082031 38.714844 263.039062 C 37.703125 264.054688 36.417969 264.527344 35.136719 264.527344 Z M 54.1875 245.472656 C 52.90625 245.472656 51.554688 245 50.609375 243.988281 C 35.609375 228.917969 27.363281 208.988281 27.363281 187.835938 C 27.363281 166.6875 35.609375 146.757812 50.609375 131.6875 C 52.566406 129.730469 55.8125 129.730469 57.769531 131.6875 C 59.730469 133.648438 59.730469 136.890625 57.769531 138.851562 C 44.664062 152.027344 37.5 169.390625 37.5 187.835938 C 37.5 206.285156 44.730469 223.714844 57.769531 236.824219 C 59.730469 238.785156 59.730469 242.027344 57.769531 243.988281 C 56.757812 245 55.472656 245.472656 54.1875 245.472656 Z M 73.3125 226.351562 C 72.027344 226.351562 70.742188 225.878906 69.730469 224.863281 C 59.863281 215 54.390625 201.824219 54.390625 187.835938 C 54.390625 173.851562 59.863281 160.675781 69.730469 150.8125 C 71.6875 148.851562 74.933594 148.851562 76.890625 150.8125 C 78.851562 152.769531 78.851562 156.011719 76.890625 157.972656 C 68.917969 165.945312 64.527344 176.554688 64.527344 187.835938 C 64.527344 199.121094 68.917969 209.730469 76.890625 217.703125 C 78.851562 219.664062 78.851562 222.90625 76.890625 224.863281 C 75.878906 225.878906 74.59375 226.351562 73.3125 226.351562 Z M 73.3125 226.351562 " fill-opacity="1" fill-rule="nonzero"/></svg>