<svg xmlns="http://www.w3.org/2000/svg" xmlns:xlink="http://www.w3.org/1999/xlink" width="500" zoomAndPan="magnify" viewBox="0 0 375 374.999991" height="500" preserveAspectRatio="xMidYMid meet" version="1.0"><defs><g/><clipPath id="1769223fb1"><path d="M 258 92 L 318.160156 92 L 318.160156 284.386719 L 258 284.386719 Z M 258 92 " clip-rule="nonzero"/></clipPath><clipPath id="f180e5ae24"><path d="M 57.160156 92 L 117 92 L 117 284.386719 L 57.160156 284.386719 Z M 57.160156 92 " clip-rule="nonzero"/></clipPath></defs><path fill="#000000" d="M 187.601562 162.128906 C 173.050781 162.128906 161.257812 173.925781 161.257812 188.476562 C 161.257812 203.03125 173.050781 214.828125 187.601562 214.828125 C 202.152344 214.828125 213.945312 203.03125 213.945312 188.476562 C 213.945312 173.925781 202.152344 162.128906 187.601562 162.128906 Z M 187.601562 162.128906 " fill-opacity="1" fill-rule="nonzero"/><path fill="#000000" d="M 244.699219 131.449219 C 239.789062 126.5 231.800781 126.460938 226.855469 131.363281 C 221.90625 136.269531 221.863281 144.257812 226.769531 149.214844 C 237.230469 159.777344 242.992188 173.722656 242.992188 188.476562 C 242.992188 203.234375 237.230469 217.175781 226.769531 227.742188 C 221.863281 232.695312 221.90625 240.683594 226.855469 245.589844 C 229.316406 248.027344 232.527344 249.242188 235.734375 249.242188 C 238.984375 249.242188 242.230469 247.992188 244.699219 245.503906 C 259.871094 230.179688 268.226562 209.929688 268.226562 188.476562 C 268.226562 167.027344 259.871094 146.773438 244.699219 131.449219 Z M 244.699219 131.449219 " fill-opacity="1" fill-rule="nonzero"/><g clip-path="url(#1769223fb1)"><path fill="#000000" d="M 279.855469 96.199219 C 274.9375 91.269531 266.945312 91.269531 262.015625 96.199219 C 257.085938 101.125 257.085938 109.117188 262.015625 114.046875 C 281.871094 133.90625 292.804688 160.34375 292.804688 188.476562 C 292.804688 216.613281 281.871094 243.046875 262.015625 262.910156 C 257.085938 267.839844 257.085938 275.828125 262.015625 280.753906 C 264.480469 283.21875 267.707031 284.449219 270.9375 284.449219 C 274.164062 284.449219 277.398438 283.21875 279.855469 280.753906 C 304.480469 256.125 318.039062 223.355469 318.039062 188.476562 C 318.039062 153.601562 304.480469 120.828125 279.855469 96.199219 Z M 279.855469 96.199219 " fill-opacity="1" fill-rule="nonzero"/></g><path fill="#000000" d="M 148.464844 131.363281 C 143.515625 126.464844 135.527344 126.503906 130.621094 131.449219 C 115.449219 146.773438 107.09375 167.027344 107.09375 188.476562 C 107.09375 209.929688 115.449219 230.179688 130.621094 245.503906 C 133.089844 247.992188 136.339844 249.242188 139.585938 249.242188 C 142.792969 249.242188 146.007812 248.027344 148.464844 245.589844 C 153.414062 240.683594 153.457031 232.695312 148.550781 227.742188 C 138.089844 217.175781 132.328125 203.234375 132.328125 188.476562 C 132.328125 173.722656 138.09375 159.777344 148.550781 149.214844 C 153.457031 144.257812 153.414062 136.269531 148.464844 131.363281 Z M 148.464844 131.363281 " fill-opacity="1" fill-rule="nonzero"/><g clip-path="url(#f180e5ae24)"><path fill="#000000" d="M 82.519531 188.476562 C 82.519531 160.34375 93.453125 133.90625 113.304688 114.046875 C 118.234375 109.117188 118.234375 101.125 113.304688 96.199219 C 108.375 91.269531 100.382812 91.269531 95.464844 96.199219 C 70.839844 120.828125 57.285156 153.601562 57.285156 188.476562 C 57.285156 223.355469 70.839844 256.125 95.464844 280.753906 C 97.925781 283.21875 101.15625 284.449219 104.382812 284.449219 C 107.613281 284.449219 110.839844 283.21875 113.304688 280.753906 C 118.234375 275.828125 118.234375 267.839844 113.304688 262.910156 C 93.453125 243.046875 82.519531 216.613281 82.519531 188.476562 Z M 82.519531 188.476562 " fill-opacity="1" fill-rule="nonzero"/></g><g fill="#ffffff" fill-opacity="1"><g transform="translate(57.172414, 352.399986)"><g><path d="M 10.28125 0 L 8.84375 0 L 7.796875 -3.140625 L 2.921875 -3.140625 L 1.859375 0 L 0.453125 0 L 4.4375 -11.421875 L 6.296875 -11.421875 Z M 5.265625 -10.046875 L 3.296875 -4.265625 L 7.40625 -4.265625 L 5.453125 -10.046875 Z M 5.265625 -10.046875 "/></g></g></g><g fill="#ffffff" fill-opacity="1"><g transform="translate(67.904167, 352.399986)"><g><path d="M 4.46875 0.171875 C 3.78125 0.171875 3.171875 0.00390625 2.640625 -0.328125 C 2.109375 -0.660156 1.691406 -1.160156 1.390625 -1.828125 C 1.097656 -2.492188 0.953125 -3.320312 0.953125 -4.3125 C 0.953125 -5.289062 1.109375 -6.113281 1.421875 -6.78125 C 1.734375 -7.457031 2.160156 -7.957031 2.703125 -8.28125 C 3.253906 -8.613281 3.894531 -8.78125 4.625 -8.78125 C 5.195312 -8.78125 5.710938 -8.671875 6.171875 -8.453125 C 6.628906 -8.242188 7.019531 -7.890625 7.34375 -7.390625 L 7.515625 -7.421875 L 7.515625 -12.078125 L 8.78125 -12.078125 L 8.78125 0 L 7.515625 0 L 7.515625 -1.265625 L 7.34375 -1.296875 C 7.0625 -0.867188 6.679688 -0.515625 6.203125 -0.234375 C 5.722656 0.0351562 5.144531 0.171875 4.46875 0.171875 Z M 4.875 -0.984375 C 5.675781 -0.984375 6.316406 -1.253906 6.796875 -1.796875 C 7.273438 -2.347656 7.515625 -3.1875 7.515625 -4.3125 C 7.515625 -5.4375 7.273438 -6.269531 6.796875 -6.8125 C 6.316406 -7.363281 5.675781 -7.640625 4.875 -7.640625 C 4.039062 -7.640625 3.398438 -7.367188 2.953125 -6.828125 C 2.503906 -6.296875 2.28125 -5.457031 2.28125 -4.3125 C 2.28125 -2.09375 3.144531 -0.984375 4.875 -0.984375 Z M 4.875 -0.984375 "/></g></g></g><g fill="#ffffff" fill-opacity="1"><g transform="translate(78.190723, 352.399986)"><g><path d="M 4.46875 0.171875 C 3.78125 0.171875 3.171875 0.00390625 2.640625 -0.328125 C 2.109375 -0.660156 1.691406 -1.160156 1.390625 -1.828125 C 1.097656 -2.492188 0.953125 -3.320312 0.953125 -4.3125 C 0.953125 -5.289062 1.109375 -6.113281 1.421875 -6.78125 C 1.734375 -7.457031 2.160156 -7.957031 2.703125 -8.28125 C 3.253906 -8.613281 3.894531 -8.78125 4.625 -8.78125 C 5.195312 -8.78125 5.710938 -8.671875 6.171875 -8.453125 C 6.628906 -8.242188 7.019531 -7.890625 7.34375 -7.390625 L 7.515625 -7.421875 L 7.515625 -12.078125 L 8.78125 -12.078125 L 8.78125 0 L 7.515625 0 L 7.515625 -1.265625 L 7.34375 -1.296875 C 7.0625 -0.867188 6.679688 -0.515625 6.203125 -0.234375 C 5.722656 0.0351562 5.144531 0.171875 4.46875 0.171875 Z M 4.875 -0.984375 C 5.675781 -0.984375 6.316406 -1.253906 6.796875 -1.796875 C 7.273438 -2.347656 7.515625 -3.1875 7.515625 -4.3125 C 7.515625 -5.4375 7.273438 -6.269531 6.796875 -6.8125 C 6.316406 -7.363281 5.675781 -7.640625 4.875 -7.640625 C 4.039062 -7.640625 3.398438 -7.367188 2.953125 -6.828125 C 2.503906 -6.296875 2.28125 -5.457031 2.28125 -4.3125 C 2.28125 -2.09375 3.144531 -0.984375 4.875 -0.984375 Z M 4.875 -0.984375 "/></g></g></g><g fill="#ffffff" fill-opacity="1"><g transform="translate(88.477279, 352.399986)"><g/></g></g><g fill="#ffffff" fill-opacity="1"><g transform="translate(92.398196, 352.399986)"><g><path d="M 3.5625 0.171875 C 2.707031 0.171875 2.039062 -0.0507812 1.5625 -0.5 C 1.09375 -0.945312 0.859375 -1.582031 0.859375 -2.40625 C 0.859375 -2.914062 0.960938 -3.34375 1.171875 -3.6875 C 1.378906 -4.039062 1.703125 -4.328125 2.140625 -4.546875 C 2.585938 -4.773438 3.171875 -4.945312 3.890625 -5.0625 C 4.515625 -5.164062 4.988281 -5.28125 5.3125 -5.40625 C 5.632812 -5.539062 5.851562 -5.6875 5.96875 -5.84375 C 6.082031 -6.007812 6.140625 -6.21875 6.140625 -6.46875 C 6.140625 -6.851562 6.003906 -7.148438 5.734375 -7.359375 C 5.460938 -7.566406 5.03125 -7.671875 4.4375 -7.671875 C 3.882812 -7.671875 3.40625 -7.5625 3 -7.34375 C 2.601562 -7.132812 2.238281 -6.816406 1.90625 -6.390625 L 1.75 -6.390625 L 1.125 -7.265625 C 1.488281 -7.734375 1.953125 -8.101562 2.515625 -8.375 C 3.078125 -8.644531 3.71875 -8.78125 4.4375 -8.78125 C 5.457031 -8.78125 6.207031 -8.554688 6.6875 -8.109375 C 7.164062 -7.671875 7.40625 -7.054688 7.40625 -6.265625 L 7.40625 -1.703125 C 7.40625 -1.222656 7.609375 -0.984375 8.015625 -0.984375 C 8.148438 -0.984375 8.28125 -1.003906 8.40625 -1.046875 L 8.515625 -1.015625 L 8.671875 -0.140625 C 8.578125 -0.078125 8.453125 -0.03125 8.296875 0 C 8.140625 0.0390625 7.984375 0.0625 7.828125 0.0625 C 7.347656 0.0625 6.988281 -0.0390625 6.75 -0.25 C 6.507812 -0.457031 6.351562 -0.765625 6.28125 -1.171875 L 6.125 -1.1875 C 5.875 -0.738281 5.539062 -0.398438 5.125 -0.171875 C 4.707031 0.0546875 4.1875 0.171875 3.5625 0.171875 Z M 3.84375 -0.859375 C 4.320312 -0.859375 4.734375 -0.96875 5.078125 -1.1875 C 5.429688 -1.40625 5.703125 -1.710938 5.890625 -2.109375 C 6.078125 -2.515625 6.171875 -2.984375 6.171875 -3.515625 L 6.171875 -4.609375 L 6.03125 -4.640625 C 5.832031 -4.503906 5.59375 -4.390625 5.3125 -4.296875 C 5.039062 -4.203125 4.660156 -4.117188 4.171875 -4.046875 C 3.671875 -3.984375 3.269531 -3.878906 2.96875 -3.734375 C 2.675781 -3.597656 2.46875 -3.421875 2.34375 -3.203125 C 2.21875 -2.984375 2.15625 -2.71875 2.15625 -2.40625 C 2.15625 -1.894531 2.300781 -1.507812 2.59375 -1.25 C 2.894531 -0.988281 3.3125 -0.859375 3.84375 -0.859375 Z M 3.84375 -0.859375 "/></g></g></g><g fill="#ffffff" fill-opacity="1"><g transform="translate(101.310087, 352.399986)"><g/></g></g><g fill="#ffffff" fill-opacity="1"><g transform="translate(105.231004, 352.399986)"><g><path d="M 3.4375 0.171875 C 2.820312 0.171875 2.335938 0 1.984375 -0.34375 C 1.640625 -0.695312 1.46875 -1.21875 1.46875 -1.90625 L 1.46875 -12.078125 L 2.75 -12.078125 L 2.75 -2 C 2.75 -1.632812 2.816406 -1.375 2.953125 -1.21875 C 3.085938 -1.0625 3.300781 -0.984375 3.59375 -0.984375 C 3.769531 -0.984375 3.953125 -1.007812 4.140625 -1.0625 L 4.25 -1.03125 L 4.390625 -0.03125 C 4.296875 0.03125 4.160156 0.078125 3.984375 0.109375 C 3.816406 0.148438 3.632812 0.171875 3.4375 0.171875 Z M 3.4375 0.171875 "/></g></g></g><g fill="#ffffff" fill-opacity="1"><g transform="translate(109.91736, 352.399986)"><g><path d="M 2.140625 -10.28125 C 1.867188 -10.28125 1.648438 -10.363281 1.484375 -10.53125 C 1.316406 -10.707031 1.234375 -10.925781 1.234375 -11.1875 C 1.234375 -11.445312 1.316406 -11.660156 1.484375 -11.828125 C 1.648438 -11.992188 1.867188 -12.078125 2.140625 -12.078125 C 2.410156 -12.078125 2.628906 -11.992188 2.796875 -11.828125 C 2.972656 -11.660156 3.0625 -11.445312 3.0625 -11.1875 C 3.0625 -10.925781 2.972656 -10.707031 2.796875 -10.53125 C 2.628906 -10.363281 2.410156 -10.28125 2.140625 -10.28125 Z M 1.5 0 L 1.5 -8.625 L 2.78125 -8.625 L 2.78125 0 Z M 1.5 0 "/></g></g></g><g fill="#ffffff" fill-opacity="1"><g transform="translate(114.189759, 352.399986)"><g><path d="M 5.828125 -1.375 L 6.234375 -0.453125 C 6.035156 -0.253906 5.769531 -0.101562 5.4375 0 C 5.101562 0.113281 4.742188 0.171875 4.359375 0.171875 C 2.710938 0.171875 1.890625 -0.664062 1.890625 -2.34375 L 1.890625 -7.578125 L 0.390625 -7.578125 L 0.390625 -8.625 L 1.890625 -8.625 L 1.890625 -10.453125 L 3.171875 -10.65625 L 3.171875 -8.625 L 5.9375 -8.625 L 5.9375 -7.578125 L 3.171875 -7.578125 L 3.171875 -2.46875 C 3.171875 -1.476562 3.597656 -0.984375 4.453125 -0.984375 C 4.921875 -0.984375 5.328125 -1.113281 5.671875 -1.375 Z M 5.828125 -1.375 "/></g></g></g><g fill="#ffffff" fill-opacity="1"><g transform="translate(120.750657, 352.399986)"><g><path d="M 5.828125 -1.375 L 6.234375 -0.453125 C 6.035156 -0.253906 5.769531 -0.101562 5.4375 0 C 5.101562 0.113281 4.742188 0.171875 4.359375 0.171875 C 2.710938 0.171875 1.890625 -0.664062 1.890625 -2.34375 L 1.890625 -7.578125 L 0.390625 -7.578125 L 0.390625 -8.625 L 1.890625 -8.625 L 1.890625 -10.453125 L 3.171875 -10.65625 L 3.171875 -8.625 L 5.9375 -8.625 L 5.9375 -7.578125 L 3.171875 -7.578125 L 3.171875 -2.46875 C 3.171875 -1.476562 3.597656 -0.984375 4.453125 -0.984375 C 4.921875 -0.984375 5.328125 -1.113281 5.671875 -1.375 Z M 5.828125 -1.375 "/></g></g></g><g fill="#ffffff" fill-opacity="1"><g transform="translate(127.311554, 352.399986)"><g><path d="M 3.4375 0.171875 C 2.820312 0.171875 2.335938 0 1.984375 -0.34375 C 1.640625 -0.695312 1.46875 -1.21875 1.46875 -1.90625 L 1.46875 -12.078125 L 2.75 -12.078125 L 2.75 -2 C 2.75 -1.632812 2.816406 -1.375 2.953125 -1.21875 C 3.085938 -1.0625 3.300781 -0.984375 3.59375 -0.984375 C 3.769531 -0.984375 3.953125 -1.007812 4.140625 -1.0625 L 4.25 -1.03125 L 4.390625 -0.03125 C 4.296875 0.03125 4.160156 0.078125 3.984375 0.109375 C 3.816406 0.148438 3.632812 0.171875 3.4375 0.171875 Z M 3.4375 0.171875 "/></g></g></g><g fill="#ffffff" fill-opacity="1"><g transform="translate(131.997909, 352.399986)"><g><path d="M 8.21875 -4.015625 L 2.296875 -4.015625 C 2.328125 -2.972656 2.578125 -2.207031 3.046875 -1.71875 C 3.515625 -1.226562 4.15625 -0.984375 4.96875 -0.984375 C 5.582031 -0.984375 6.078125 -1.09375 6.453125 -1.3125 C 6.828125 -1.53125 7.117188 -1.875 7.328125 -2.34375 L 7.5 -2.34375 L 8.328125 -1.84375 C 8.078125 -1.21875 7.675781 -0.722656 7.125 -0.359375 C 6.570312 -0.00390625 5.851562 0.171875 4.96875 0.171875 C 4.132812 0.171875 3.414062 0.00390625 2.8125 -0.328125 C 2.21875 -0.660156 1.757812 -1.160156 1.4375 -1.828125 C 1.113281 -2.492188 0.953125 -3.320312 0.953125 -4.3125 C 0.953125 -5.289062 1.117188 -6.113281 1.453125 -6.78125 C 1.796875 -7.457031 2.265625 -7.957031 2.859375 -8.28125 C 3.453125 -8.613281 4.128906 -8.78125 4.890625 -8.78125 C 5.992188 -8.78125 6.851562 -8.46875 7.46875 -7.84375 C 8.09375 -7.226562 8.40625 -6.304688 8.40625 -5.078125 C 8.40625 -4.597656 8.394531 -4.273438 8.375 -4.109375 Z M 7.15625 -5.078125 C 7.132812 -5.992188 6.929688 -6.660156 6.546875 -7.078125 C 6.160156 -7.492188 5.609375 -7.703125 4.890625 -7.703125 C 4.128906 -7.703125 3.535156 -7.492188 3.109375 -7.078125 C 2.679688 -6.660156 2.421875 -5.992188 2.328125 -5.078125 Z M 7.15625 -5.078125 "/></g></g></g><g fill="#ffffff" fill-opacity="1"><g transform="translate(141.183166, 352.399986)"><g/></g></g><g fill="#ffffff" fill-opacity="1"><g transform="translate(145.104083, 352.399986)"><g><path d="M 5.734375 0.171875 C 5.085938 0.171875 4.53125 0.046875 4.0625 -0.203125 C 3.59375 -0.453125 3.21875 -0.78125 2.9375 -1.1875 L 2.78125 -1.15625 L 2.78125 0 L 1.5 0 L 1.5 -12.078125 L 2.78125 -12.078125 L 2.78125 -7.328125 L 2.9375 -7.296875 C 3.59375 -8.285156 4.546875 -8.78125 5.796875 -8.78125 C 6.503906 -8.78125 7.125 -8.613281 7.65625 -8.28125 C 8.1875 -7.957031 8.597656 -7.460938 8.890625 -6.796875 C 9.191406 -6.128906 9.34375 -5.300781 9.34375 -4.3125 C 9.34375 -3.332031 9.1875 -2.503906 8.875 -1.828125 C 8.5625 -1.160156 8.132812 -0.660156 7.59375 -0.328125 C 7.050781 0.00390625 6.429688 0.171875 5.734375 0.171875 Z M 5.421875 -0.984375 C 7.140625 -0.984375 8 -2.09375 8 -4.3125 C 8 -5.457031 7.773438 -6.296875 7.328125 -6.828125 C 6.878906 -7.367188 6.242188 -7.640625 5.421875 -7.640625 C 4.617188 -7.640625 3.976562 -7.363281 3.5 -6.8125 C 3.019531 -6.269531 2.78125 -5.4375 2.78125 -4.3125 C 2.78125 -3.1875 3.019531 -2.347656 3.5 -1.796875 C 3.976562 -1.253906 4.617188 -0.984375 5.421875 -0.984375 Z M 5.421875 -0.984375 "/></g></g></g><g fill="#ffffff" fill-opacity="1"><g transform="translate(155.382822, 352.399986)"><g><path d="M 2.140625 -10.28125 C 1.867188 -10.28125 1.648438 -10.363281 1.484375 -10.53125 C 1.316406 -10.707031 1.234375 -10.925781 1.234375 -11.1875 C 1.234375 -11.445312 1.316406 -11.660156 1.484375 -11.828125 C 1.648438 -11.992188 1.867188 -12.078125 2.140625 -12.078125 C 2.410156 -12.078125 2.628906 -11.992188 2.796875 -11.828125 C 2.972656 -11.660156 3.0625 -11.445312 3.0625 -11.1875 C 3.0625 -10.925781 2.972656 -10.707031 2.796875 -10.53125 C 2.628906 -10.363281 2.410156 -10.28125 2.140625 -10.28125 Z M 1.5 0 L 1.5 -8.625 L 2.78125 -8.625 L 2.78125 0 Z M 1.5 0 "/></g></g></g><g fill="#ffffff" fill-opacity="1"><g transform="translate(159.655222, 352.399986)"><g><path d="M 5.828125 -1.375 L 6.234375 -0.453125 C 6.035156 -0.253906 5.769531 -0.101562 5.4375 0 C 5.101562 0.113281 4.742188 0.171875 4.359375 0.171875 C 2.710938 0.171875 1.890625 -0.664062 1.890625 -2.34375 L 1.890625 -7.578125 L 0.390625 -7.578125 L 0.390625 -8.625 L 1.890625 -8.625 L 1.890625 -10.453125 L 3.171875 -10.65625 L 3.171875 -8.625 L 5.9375 -8.625 L 5.9375 -7.578125 L 3.171875 -7.578125 L 3.171875 -2.46875 C 3.171875 -1.476562 3.597656 -0.984375 4.453125 -0.984375 C 4.921875 -0.984375 5.328125 -1.113281 5.671875 -1.375 Z M 5.828125 -1.375 "/></g></g></g><g fill="#ffffff" fill-opacity="1"><g transform="translate(166.216119, 352.399986)"><g/></g></g><g fill="#ffffff" fill-opacity="1"><g transform="translate(170.137037, 352.399986)"><g><path d="M 4.953125 0.171875 C 4.140625 0.171875 3.429688 0 2.828125 -0.34375 C 2.222656 -0.695312 1.757812 -1.207031 1.4375 -1.875 C 1.113281 -2.539062 0.953125 -3.351562 0.953125 -4.3125 C 0.953125 -5.257812 1.113281 -6.066406 1.4375 -6.734375 C 1.757812 -7.410156 2.222656 -7.921875 2.828125 -8.265625 C 3.429688 -8.609375 4.140625 -8.78125 4.953125 -8.78125 C 5.765625 -8.78125 6.46875 -8.609375 7.0625 -8.265625 C 7.664062 -7.921875 8.128906 -7.410156 8.453125 -6.734375 C 8.785156 -6.066406 8.953125 -5.257812 8.953125 -4.3125 C 8.953125 -3.351562 8.785156 -2.539062 8.453125 -1.875 C 8.128906 -1.207031 7.664062 -0.695312 7.0625 -0.34375 C 6.46875 0 5.765625 0.171875 4.953125 0.171875 Z M 4.953125 -0.984375 C 5.804688 -0.984375 6.460938 -1.253906 6.921875 -1.796875 C 7.378906 -2.335938 7.609375 -3.175781 7.609375 -4.3125 C 7.609375 -5.445312 7.378906 -6.285156 6.921875 -6.828125 C 6.460938 -7.367188 5.804688 -7.640625 4.953125 -7.640625 C 4.085938 -7.640625 3.425781 -7.367188 2.96875 -6.828125 C 2.507812 -6.285156 2.28125 -5.445312 2.28125 -4.3125 C 2.28125 -3.175781 2.507812 -2.335938 2.96875 -1.796875 C 3.425781 -1.253906 4.085938 -0.984375 4.953125 -0.984375 Z M 4.953125 -0.984375 "/></g></g></g><g fill="#ffffff" fill-opacity="1"><g transform="translate(180.025246, 352.399986)"><g><path d="M 1.921875 0 L 1.921875 -7.578125 L 0.421875 -7.578125 L 0.421875 -8.625 L 1.921875 -8.625 C 1.828125 -9 1.78125 -9.359375 1.78125 -9.703125 C 1.78125 -10.253906 1.898438 -10.722656 2.140625 -11.109375 C 2.378906 -11.492188 2.707031 -11.78125 3.125 -11.96875 C 3.550781 -12.15625 4.039062 -12.25 4.59375 -12.25 C 5.445312 -12.25 6.101562 -12.0625 6.5625 -11.6875 L 6.078125 -10.796875 L 5.90625 -10.765625 C 5.570312 -11.035156 5.132812 -11.171875 4.59375 -11.171875 C 4.082031 -11.171875 3.695312 -11.039062 3.4375 -10.78125 C 3.1875 -10.519531 3.0625 -10.148438 3.0625 -9.671875 C 3.0625 -9.367188 3.109375 -9.019531 3.203125 -8.625 L 5.9375 -8.625 L 5.9375 -7.578125 L 3.203125 -7.578125 L 3.203125 0 Z M 1.921875 0 "/></g></g></g><g fill="#ffffff" fill-opacity="1"><g transform="translate(186.164372, 352.399986)"><g/></g></g><g fill="#ffffff" fill-opacity="1"><g transform="translate(190.085289, 352.399986)"><g><path d="M 5.734375 0.171875 C 5.085938 0.171875 4.53125 0.046875 4.0625 -0.203125 C 3.59375 -0.453125 3.21875 -0.78125 2.9375 -1.1875 L 2.78125 -1.15625 L 2.78125 0 L 1.5 0 L 1.5 -12.078125 L 2.78125 -12.078125 L 2.78125 -7.328125 L 2.9375 -7.296875 C 3.59375 -8.285156 4.546875 -8.78125 5.796875 -8.78125 C 6.503906 -8.78125 7.125 -8.613281 7.65625 -8.28125 C 8.1875 -7.957031 8.597656 -7.460938 8.890625 -6.796875 C 9.191406 -6.128906 9.34375 -5.300781 9.34375 -4.3125 C 9.34375 -3.332031 9.1875 -2.503906 8.875 -1.828125 C 8.5625 -1.160156 8.132812 -0.660156 7.59375 -0.328125 C 7.050781 0.00390625 6.429688 0.171875 5.734375 0.171875 Z M 5.421875 -0.984375 C 7.140625 -0.984375 8 -2.09375 8 -4.3125 C 8 -5.457031 7.773438 -6.296875 7.328125 -6.828125 C 6.878906 -7.367188 6.242188 -7.640625 5.421875 -7.640625 C 4.617188 -7.640625 3.976562 -7.363281 3.5 -6.8125 C 3.019531 -6.269531 2.78125 -5.4375 2.78125 -4.3125 C 2.78125 -3.1875 3.019531 -2.347656 3.5 -1.796875 C 3.976562 -1.253906 4.617188 -0.984375 5.421875 -0.984375 Z M 5.421875 -0.984375 "/></g></g></g><g fill="#ffffff" fill-opacity="1"><g transform="translate(200.364028, 352.399986)"><g><path d="M 4.953125 0.171875 C 4.140625 0.171875 3.429688 0 2.828125 -0.34375 C 2.222656 -0.695312 1.757812 -1.207031 1.4375 -1.875 C 1.113281 -2.539062 0.953125 -3.351562 0.953125 -4.3125 C 0.953125 -5.257812 1.113281 -6.066406 1.4375 -6.734375 C 1.757812 -7.410156 2.222656 -7.921875 2.828125 -8.265625 C 3.429688 -8.609375 4.140625 -8.78125 4.953125 -8.78125 C 5.765625 -8.78125 6.46875 -8.609375 7.0625 -8.265625 C 7.664062 -7.921875 8.128906 -7.410156 8.453125 -6.734375 C 8.785156 -6.066406 8.953125 -5.257812 8.953125 -4.3125 C 8.953125 -3.351562 8.785156 -2.539062 8.453125 -1.875 C 8.128906 -1.207031 7.664062 -0.695312 7.0625 -0.34375 C 6.46875 0 5.765625 0.171875 4.953125 0.171875 Z M 4.953125 -0.984375 C 5.804688 -0.984375 6.460938 -1.253906 6.921875 -1.796875 C 7.378906 -2.335938 7.609375 -3.175781 7.609375 -4.3125 C 7.609375 -5.445312 7.378906 -6.285156 6.921875 -6.828125 C 6.460938 -7.367188 5.804688 -7.640625 4.953125 -7.640625 C 4.085938 -7.640625 3.425781 -7.367188 2.96875 -6.828125 C 2.507812 -6.285156 2.28125 -5.445312 2.28125 -4.3125 C 2.28125 -3.175781 2.507812 -2.335938 2.96875 -1.796875 C 3.425781 -1.253906 4.085938 -0.984375 4.953125 -0.984375 Z M 4.953125 -0.984375 "/></g></g></g><g fill="#ffffff" fill-opacity="1"><g transform="translate(210.252238, 352.399986)"><g><path d="M 4.46875 0.171875 C 3.78125 0.171875 3.171875 0.00390625 2.640625 -0.328125 C 2.109375 -0.660156 1.691406 -1.160156 1.390625 -1.828125 C 1.097656 -2.492188 0.953125 -3.320312 0.953125 -4.3125 C 0.953125 -5.289062 1.109375 -6.113281 1.421875 -6.78125 C 1.734375 -7.457031 2.160156 -7.957031 2.703125 -8.28125 C 3.253906 -8.613281 3.894531 -8.78125 4.625 -8.78125 C 5.195312 -8.78125 5.710938 -8.671875 6.171875 -8.453125 C 6.628906 -8.242188 7.019531 -7.890625 7.34375 -7.390625 L 7.515625 -7.421875 L 7.515625 -12.078125 L 8.78125 -12.078125 L 8.78125 0 L 7.515625 0 L 7.515625 -1.265625 L 7.34375 -1.296875 C 7.0625 -0.867188 6.679688 -0.515625 6.203125 -0.234375 C 5.722656 0.0351562 5.144531 0.171875 4.46875 0.171875 Z M 4.875 -0.984375 C 5.675781 -0.984375 6.316406 -1.253906 6.796875 -1.796875 C 7.273438 -2.347656 7.515625 -3.1875 7.515625 -4.3125 C 7.515625 -5.4375 7.273438 -6.269531 6.796875 -6.8125 C 6.316406 -7.363281 5.675781 -7.640625 4.875 -7.640625 C 4.039062 -7.640625 3.398438 -7.367188 2.953125 -6.828125 C 2.503906 -6.296875 2.28125 -5.457031 2.28125 -4.3125 C 2.28125 -2.09375 3.144531 -0.984375 4.875 -0.984375 Z M 4.875 -0.984375 "/></g></g></g><g fill="#ffffff" fill-opacity="1"><g transform="translate(220.538793, 352.399986)"><g><path d="M 1.734375 3.65625 C 1.441406 3.65625 1.164062 3.628906 0.90625 3.578125 C 0.65625 3.535156 0.441406 3.46875 0.265625 3.375 L 0.5 2.375 L 0.640625 2.328125 C 0.765625 2.390625 0.921875 2.441406 1.109375 2.484375 C 1.296875 2.523438 1.488281 2.546875 1.6875 2.546875 C 2.03125 2.546875 2.316406 2.5 2.546875 2.40625 C 2.773438 2.3125 2.972656 2.15625 3.140625 1.9375 C 3.304688 1.726562 3.457031 1.429688 3.59375 1.046875 L 3.90625 0.203125 L 0.4375 -8.625 L 1.8125 -8.625 L 4.53125 -1.59375 L 4.671875 -1.59375 L 7.296875 -8.625 L 8.609375 -8.625 L 4.75 1.359375 C 4.53125 1.910156 4.285156 2.351562 4.015625 2.6875 C 3.742188 3.019531 3.421875 3.265625 3.046875 3.421875 C 2.679688 3.578125 2.242188 3.65625 1.734375 3.65625 Z M 1.734375 3.65625 "/></g></g></g><g fill="#ffffff" fill-opacity="1"><g transform="translate(229.622518, 352.399986)"><g/></g></g><g fill="#ffffff" fill-opacity="1"><g transform="translate(233.543435, 352.399986)"><g><path d="M 5.828125 -1.375 L 6.234375 -0.453125 C 6.035156 -0.253906 5.769531 -0.101562 5.4375 0 C 5.101562 0.113281 4.742188 0.171875 4.359375 0.171875 C 2.710938 0.171875 1.890625 -0.664062 1.890625 -2.34375 L 1.890625 -7.578125 L 0.390625 -7.578125 L 0.390625 -8.625 L 1.890625 -8.625 L 1.890625 -10.453125 L 3.171875 -10.65625 L 3.171875 -8.625 L 5.9375 -8.625 L 5.9375 -7.578125 L 3.171875 -7.578125 L 3.171875 -2.46875 C 3.171875 -1.476562 3.597656 -0.984375 4.453125 -0.984375 C 4.921875 -0.984375 5.328125 -1.113281 5.671875 -1.375 Z M 5.828125 -1.375 "/></g></g></g><g fill="#ffffff" fill-opacity="1"><g transform="translate(240.104332, 352.399986)"><g><path d="M 8.21875 -4.015625 L 2.296875 -4.015625 C 2.328125 -2.972656 2.578125 -2.207031 3.046875 -1.71875 C 3.515625 -1.226562 4.15625 -0.984375 4.96875 -0.984375 C 5.582031 -0.984375 6.078125 -1.09375 6.453125 -1.3125 C 6.828125 -1.53125 7.117188 -1.875 7.328125 -2.34375 L 7.5 -2.34375 L 8.328125 -1.84375 C 8.078125 -1.21875 7.675781 -0.722656 7.125 -0.359375 C 6.570312 -0.00390625 5.851562 0.171875 4.96875 0.171875 C 4.132812 0.171875 3.414062 0.00390625 2.8125 -0.328125 C 2.21875 -0.660156 1.757812 -1.160156 1.4375 -1.828125 C 1.113281 -2.492188 0.953125 -3.320312 0.953125 -4.3125 C 0.953125 -5.289062 1.117188 -6.113281 1.453125 -6.78125 C 1.796875 -7.457031 2.265625 -7.957031 2.859375 -8.28125 C 3.453125 -8.613281 4.128906 -8.78125 4.890625 -8.78125 C 5.992188 -8.78125 6.851562 -8.46875 7.46875 -7.84375 C 8.09375 -7.226562 8.40625 -6.304688 8.40625 -5.078125 C 8.40625 -4.597656 8.394531 -4.273438 8.375 -4.109375 Z M 7.15625 -5.078125 C 7.132812 -5.992188 6.929688 -6.660156 6.546875 -7.078125 C 6.160156 -7.492188 5.609375 -7.703125 4.890625 -7.703125 C 4.128906 -7.703125 3.535156 -7.492188 3.109375 -7.078125 C 2.679688 -6.660156 2.421875 -5.992188 2.328125 -5.078125 Z M 7.15625 -5.078125 "/></g></g></g><g fill="#ffffff" fill-opacity="1"><g transform="translate(249.289589, 352.399986)"><g><path d="M 1.796875 0 L 0.390625 0 L 3.0625 -4.46875 L 0.53125 -8.625 L 1.96875 -8.625 L 3.953125 -5.3125 L 4.140625 -5.3125 L 6.140625 -8.625 L 7.515625 -8.625 L 5.046875 -4.46875 L 7.640625 0 L 6.203125 0 L 4.078125 -3.640625 L 3.90625 -3.640625 Z M 1.796875 0 "/></g></g></g><g fill="#ffffff" fill-opacity="1"><g transform="translate(257.318878, 352.399986)"><g><path d="M 5.828125 -1.375 L 6.234375 -0.453125 C 6.035156 -0.253906 5.769531 -0.101562 5.4375 0 C 5.101562 0.113281 4.742188 0.171875 4.359375 0.171875 C 2.710938 0.171875 1.890625 -0.664062 1.890625 -2.34375 L 1.890625 -7.578125 L 0.390625 -7.578125 L 0.390625 -8.625 L 1.890625 -8.625 L 1.890625 -10.453125 L 3.171875 -10.65625 L 3.171875 -8.625 L 5.9375 -8.625 L 5.9375 -7.578125 L 3.171875 -7.578125 L 3.171875 -2.46875 C 3.171875 -1.476562 3.597656 -0.984375 4.453125 -0.984375 C 4.921875 -0.984375 5.328125 -1.113281 5.671875 -1.375 Z M 5.828125 -1.375 "/></g></g></g></svg>